<?xml version="1.0" standalone="no"?>
<!DOCTYPE svg PUBLIC "-//W3C//DTD SVG 20010904//EN"
 "http://www.w3.org/TR/2001/REC-SVG-20010904/DTD/svg10.dtd">
<svg version="1.0" xmlns="http://www.w3.org/2000/svg"
 width="1233.000000pt" height="1280.000000pt" viewBox="0 0 1233.000000 1280.000000"
 preserveAspectRatio="xMidYMid meet">
<metadata>
Created by potrace 1.15, written by Peter Selinger 2001-2017
</metadata>
<g transform="translate(0.000000,1280.000000) scale(0.100000,-0.100000)"
fill="#03a9f4" stroke="none">
<path d="M9771 12784 c-82 -22 -162 -69 -223 -132 -30 -31 -461 -541 -958
-1132 -496 -591 -908 -1081 -916 -1089 -11 -12 -23 -6 -81 43 -108 90 -282
220 -358 266 -174 107 -403 200 -592 240 -128 28 -356 37 -472 20 -238 -35
-448 -141 -603 -304 -146 -154 -2119 -2512 -2148 -2568 -17 -32 -39 -82 -50
-112 -10 -30 -42 -94 -70 -142 -592 -1003 -650 -2256 -150 -3291 172 -356 369
-635 668 -944 l64 -66 -16 -30 c-49 -96 -69 -268 -45 -385 15 -68 62 -173 99
-220 41 -51 38 -54 -15 -13 -205 156 -508 146 -716 -24 -37 -31 -133 -115
-211 -186 -194 -177 -335 -298 -535 -458 -199 -159 -261 -224 -307 -320 -75
-157 -77 -352 -6 -499 l19 -40 -52 49 c-71 66 -143 110 -229 140 -61 21 -92
26 -183 26 -138 0 -168 -9 -433 -142 -293 -148 -482 -221 -792 -306 -124 -34
-210 -83 -290 -164 -325 -328 -152 -891 303 -988 98 -21 201 -12 362 31 298
80 590 192 908 352 248 123 293 151 368 232 160 169 205 421 113 631 l-24 53
63 -58 c220 -206 531 -216 782 -26 279 212 797 660 942 816 110 118 163 248
163 405 0 125 -47 269 -115 350 -29 33 -20 44 9 12 47 -52 248 -121 350 -121
139 0 304 68 407 167 l66 63 54 -24 c276 -121 613 -209 989 -258 129 -16 596
-16 730 1 536 67 989 216 1420 469 178 104 374 243 510 362 36 31 94 72 128
90 35 19 92 61 127 94 35 34 351 403 701 821 351 418 805 958 1008 1200 421
500 454 542 500 634 83 164 111 289 111 486 -1 366 -156 715 -477 1076 -50 56
-228 221 -261 241 -6 3 31 55 90 125 54 65 184 219 289 343 104 124 470 560
814 969 344 408 637 761 652 783 54 80 72 143 72 258 0 92 -3 113 -27 170 -38
89 -86 152 -157 205 -97 71 -156 89 -285 89 -105 0 -113 -1 -186 -36 -42 -19
-95 -53 -119 -74 -24 -22 -446 -518 -938 -1104 -492 -586 -905 -1076 -917
-1088 l-22 -24 -639 536 c-352 295 -640 540 -641 544 -2 4 66 88 150 188 83
99 314 373 512 609 198 235 542 645 765 909 465 553 460 547 489 603 26 53 51
154 51 213 0 59 -32 173 -65 232 -99 178 -328 275 -524 222z"/>
</g>
</svg>
